<svg width="1905" height="808" viewBox="0 0 1905 808" fill="none" xmlns="http://www.w3.org/2000/svg">
<path d="M807.5 431.63V547.283C665.001 547.283 603.043 415.109 603.043 330.435C603.043 245.761 652.609 142.5 807.5 142.5C931.414 142.5 998.5 218.5 998.5 258.152V634.022C998.5 693.913 958.261 807.5 793.044 807.5C622.87 807.5 596.848 672.572 605.109 605.109H691.848C691.848 644.348 726.957 720.761 793.044 720.761C870.696 720.761 892.863 662.935 894.239 634.022V330.435C894.239 251.957 832.283 235.435 807.5 235.435C782.718 235.435 720.761 256.087 720.761 330.435C720.761 416.348 778.587 433.696 807.5 431.63Z" fill="#234E70"/>
<path d="M204.457 431.63V547.283C27.6739 520.848 0.000121496 386.195 0 320.109C0 258.152 29.3261 142.087 204.457 140.435C379.587 138.783 404.783 258.152 404.783 320.109V547.283H287.065V320.109C287.065 177.609 115.652 227.174 115.652 320.109C115.652 394.456 174.855 425.435 204.457 431.63Z" fill="#234E70"/>
<path d="M1703.8 431.63V547.283C1527.02 520.848 1499.35 386.195 1499.35 320.109C1499.35 258.152 1528.67 142.087 1703.8 140.435C1878.93 138.783 1904.13 258.152 1904.13 320.109V547.283H1786.41V320.109C1786.41 177.609 1615 227.174 1615 320.109C1615 394.456 1674.2 425.435 1703.8 431.63Z" fill="#234E70"/>
<path d="M547.283 545.217H460.543V0H547.283V545.217Z" fill="#234E70"/>
<path fill-rule="evenodd" clip-rule="evenodd" d="M1230.87 142.665C1122.92 146.999 1036.74 235.881 1036.74 344.891C1036.74 453.902 1122.92 542.783 1230.87 547.117V452.11C1173.3 448.898 1127.61 401.198 1127.61 342.826C1127.61 284.454 1173.3 236.754 1230.87 233.542V142.665ZM1243.26 451.802C1298.87 446.598 1342.39 399.795 1342.39 342.826C1342.39 285.857 1298.87 239.054 1243.26 233.85V142.541C1353.13 144.741 1441.52 234.494 1441.52 344.891C1441.52 384.343 1430.23 421.157 1410.71 452.283H1491.09V547.283H1243.26V451.802Z" fill="#234E70"/>
</svg>
